<?xml version="1.0" standalone="no"?>
<!DOCTYPE svg PUBLIC "-//W3C//DTD SVG 20010904//EN"
 "http://www.w3.org/TR/2001/REC-SVG-20010904/DTD/svg10.dtd">
<svg version="1.0" xmlns="http://www.w3.org/2000/svg"
 width="1952.000000pt" height="1952.000000pt" viewBox="0 0 1952.000000 1952.000000"
 preserveAspectRatio="xMidYMid meet">
<metadata>
Created by potrace 1.11, written by Peter Selinger 2001-2013
</metadata>
<g transform="translate(0.000000,1952.000000) scale(0.100000,-0.100000)"
fill="#000000" stroke="none">
<path d="M0 9755 l0 -3675 933 0 932 0 0 1260 c0 839 3 1260 10 1261 5 0 343
2 750 4 407 2 756 6 775 8 136 16 169 19 200 22 32 2 49 5 135 21 17 3 44 7
60 10 17 3 50 10 75 15 25 5 56 12 70 14 14 3 32 8 40 11 8 3 26 8 40 10 14 3
28 8 31 12 6 6 29 71 35 97 1 6 19 60 39 120 20 61 38 117 40 125 2 8 11 35
20 60 9 25 18 52 20 60 2 8 17 58 35 110 50 151 102 314 104 327 1 7 5 16 9
19 4 4 7 13 7 20 0 7 5 25 12 41 7 15 13 33 13 38 1 6 5 17 8 25 9 26 91 274
93 285 1 6 12 42 25 80 13 39 24 72 24 75 1 6 45 140 52 160 3 8 7 20 8 25 2
6 33 102 70 215 37 113 87 268 111 345 25 77 52 155 60 173 7 18 14 41 14 50
0 10 5 23 12 30 7 7 9 12 5 12 -3 0 7 36 22 80 16 44 27 80 25 80 -2 0 5 20
16 45 11 25 17 45 14 45 -2 0 0 9 6 21 6 11 13 28 15 37 4 20 112 357 124 387
16 40 32 90 37 114 3 13 10 34 16 45 6 12 10 22 9 24 -2 2 2 15 7 30 14 36 61
182 67 205 2 10 7 26 9 35 6 18 -56 117 -134 216 -45 56 -224 242 -271 282
-110 91 -254 191 -349 240 -30 16 -56 32 -58 37 -2 4 -10 7 -17 7 -8 0 -30 9
-49 21 -20 12 -36 18 -36 13 0 -4 -8 0 -18 8 -9 9 -35 21 -57 28 -22 7 -44 16
-50 20 -10 7 -205 70 -227 74 -7 1 -19 5 -25 9 -7 5 -13 6 -13 3 0 -3 -11 -1
-26 4 -14 6 -37 12 -52 15 -15 3 -38 7 -52 10 -64 15 -76 17 -90 19 -8 1 -35
5 -60 9 -107 18 -206 30 -247 31 -18 0 -33 4 -33 8 0 5 -9 4 -19 -2 -13 -6
-22 -7 -26 0 -3 6 -619 9 -1665 10 l-1660 0 0 -3675z m2775 2241 c39 -3 81 -8
95 -10 14 -2 48 -7 75 -11 52 -7 186 -40 220 -54 90 -37 136 -59 172 -83 23
-15 44 -28 47 -28 12 0 99 -87 146 -145 26 -33 62 -86 79 -118 38 -71 81 -174
74 -180 -2 -3 0 -15 6 -26 7 -11 14 -40 17 -63 3 -24 9 -59 13 -78 14 -64 2
-424 -14 -451 -4 -5 -8 -19 -10 -30 -18 -95 -95 -273 -135 -317 -11 -12 -20
-25 -20 -29 -1 -23 -179 -183 -204 -183 -3 0 -23 -10 -44 -23 -57 -36 -238
-95 -314 -103 -10 -1 -19 -3 -20 -4 -2 -1 -14 -4 -28 -5 -14 -2 -47 -6 -75
-10 -27 -4 -262 -10 -520 -12 l-470 -4 0 983 c-1 541 2 985 6 988 10 7 819 3
904 -4z"/>
<path d="M8635 13403 c-5 -16 -9 -32 -10 -38 -2 -5 -17 -53 -35 -105 -18 -52
-33 -99 -35 -105 -1 -5 -5 -17 -8 -25 -3 -8 -24 -73 -47 -145 -23 -71 -44
-137 -47 -145 -4 -8 -7 -17 -8 -20 -2 -11 -27 -86 -32 -100 -3 -8 -7 -19 -8
-25 -2 -5 -20 -62 -41 -125 -21 -63 -39 -119 -40 -125 -1 -5 -21 -66 -44 -135
-23 -69 -43 -129 -44 -135 -2 -5 -6 -17 -9 -25 -19 -51 -182 -558 -183 -570 0
-8 -9 -30 -18 -48 -9 -17 -14 -32 -11 -32 3 0 1 -9 -5 -21 -6 -11 -13 -28 -15
-37 -4 -20 -125 -393 -161 -497 -14 -38 -26 -78 -29 -87 -6 -28 -146 -461
-155 -483 -5 -11 -20 -58 -35 -105 -15 -47 -30 -94 -35 -105 -4 -11 -27 -81
-50 -155 -23 -74 -56 -173 -72 -220 -16 -47 -32 -94 -34 -105 -11 -43 -13 -50
-14 -50 -1 0 -3 -7 -5 -15 -2 -8 -14 -42 -25 -75 -12 -33 -23 -64 -24 -70 -1
-5 -38 -118 -81 -250 -44 -132 -80 -244 -81 -250 -1 -5 -9 -29 -18 -53 -8 -23
-16 -46 -17 -50 -1 -4 -5 -17 -10 -29 -4 -12 -16 -48 -25 -80 -9 -32 -20 -62
-24 -66 -4 -4 -54 86 -112 200 -57 114 -111 219 -118 233 -8 14 -15 27 -15 30
-1 3 -25 52 -55 110 -30 58 -54 107 -55 110 0 3 -10 21 -23 41 -12 20 -22 43
-22 52 0 9 -4 18 -9 21 -8 6 -65 118 -70 141 -1 6 -8 17 -15 25 -7 8 -50 92
-97 185 -46 94 -87 172 -91 173 -5 2 -8 9 -8 15 0 7 -18 48 -41 92 -22 44
-110 217 -194 385 -85 168 -158 311 -164 319 -6 10 -11 5 -19 -20 -31 -102
-146 -460 -160 -499 -9 -25 -17 -47 -17 -50 -1 -3 -14 -45 -30 -95 -16 -49
-30 -92 -30 -95 -1 -3 -4 -12 -8 -20 -9 -25 -119 -364 -122 -380 -2 -8 -9 -28
-15 -45 -6 -16 -13 -37 -15 -45 -2 -8 -22 -70 -44 -138 -23 -67 -41 -129 -41
-137 0 -8 -4 -15 -8 -15 -5 0 -9 -6 -9 -12 0 -11 -53 -182 -70 -228 -3 -8 -7
-20 -9 -27 -2 -13 -112 -351 -121 -373 -3 -8 -7 -19 -8 -25 -5 -21 -37 -121
-45 -140 -8 -20 -80 -240 -85 -260 -1 -5 -5 -17 -8 -25 -12 -32 -110 -336
-111 -347 -1 -7 -5 -16 -9 -19 -15 -15 -4 -40 70 -167 42 -73 83 -143 91 -157
7 -14 22 -38 32 -55 11 -16 23 -37 27 -45 6 -12 116 -200 163 -280 95 -159
200 -344 200 -351 0 -5 5 -9 10 -9 6 0 9 -3 8 -7 -1 -5 5 -19 14 -33 41 -64
148 -253 148 -261 0 -5 5 -9 10 -9 6 0 10 -4 10 -9 0 -5 47 -89 104 -187 l104
-179 969 -3 969 -2 29 92 c16 51 30 95 31 98 0 3 4 13 7 22 16 41 20 54 22 63
2 6 19 61 39 122 21 62 37 115 36 118 0 3 7 19 15 35 9 17 14 30 11 30 -2 0 6
29 19 64 13 35 21 67 17 70 -3 3 0 6 6 6 7 0 12 9 12 21 0 11 5 29 11 40 6 11
12 29 14 40 2 11 15 52 28 92 18 52 259 786 362 1105 3 7 5 14 5 17 0 3 9 25
20 49 10 24 16 47 13 50 -3 3 -1 11 5 18 5 7 16 33 23 58 15 55 14 52 22 70 3
8 13 40 22 70 9 30 20 64 25 75 20 46 140 423 140 438 0 9 5 17 12 17 6 0 8 3
5 7 -4 3 -2 12 4 20 6 7 9 13 6 13 -4 0 6 37 22 83 32 91 161 483 167 507 2 8
20 62 40 120 19 58 37 110 38 115 1 6 4 15 8 20 3 6 9 26 13 45 4 19 12 41 17
48 6 6 8 12 4 12 -4 0 0 14 9 30 9 17 13 30 9 30 -4 0 -2 6 4 13 6 6 10 15 11
20 0 4 18 65 41 135 40 126 58 170 61 145 2 -16 2 -17 18 -73 7 -25 17 -54 21
-65 10 -24 92 -285 94 -300 1 -5 4 -14 7 -20 3 -5 12 -32 19 -60 7 -27 17 -56
23 -62 5 -7 7 -13 3 -13 -3 0 0 -16 8 -35 9 -20 15 -38 15 -40 0 -3 16 -58 37
-122 20 -65 37 -122 38 -128 1 -5 7 -23 13 -40 14 -39 55 -165 57 -179 1 -6
15 -49 30 -96 16 -47 29 -89 31 -95 8 -36 19 -71 24 -80 3 -5 7 -16 8 -22 7
-30 12 -48 13 -50 2 -2 3 -6 4 -10 1 -5 17 -55 35 -113 19 -58 34 -109 35
-115 1 -5 4 -14 7 -20 4 -5 10 -23 14 -40 12 -45 12 -45 15 -47 1 -2 3 -10 5
-18 2 -8 10 -35 18 -60 8 -25 29 -92 47 -150 18 -58 41 -131 52 -164 11 -32
21 -63 23 -70 1 -6 5 -18 8 -26 3 -8 22 -69 42 -135 20 -66 45 -147 56 -180
10 -33 19 -64 20 -70 1 -5 5 -17 10 -26 4 -9 10 -27 13 -40 2 -13 18 -64 34
-114 16 -49 51 -157 76 -240 26 -82 57 -181 69 -220 12 -38 22 -72 22 -75 2
-11 87 -276 95 -295 4 -11 19 -58 33 -105 40 -134 117 -384 124 -400 3 -8 5
-18 5 -22 -1 -5 436 -8 970 -8 l973 0 29 73 c16 39 34 86 41 102 12 28 26 63
30 75 1 3 7 19 14 35 16 40 19 49 18 55 -1 3 6 19 16 35 22 40 109 257 110
273 0 6 4 12 9 12 4 0 8 7 8 15 0 9 9 35 20 57 11 23 20 48 20 55 0 7 5 13 12
13 6 0 9 3 5 6 -3 4 1 23 9 43 8 20 80 198 160 396 79 198 149 369 154 380 5
11 52 128 105 260 52 132 99 249 104 260 25 53 81 201 81 212 0 7 5 13 10 13
6 0 10 6 10 13 0 7 23 69 51 138 28 68 99 246 159 394 60 149 114 284 121 300
7 17 13 32 14 35 1 3 6 16 12 30 6 14 47 117 92 230 45 113 88 219 95 235 12
26 24 55 31 75 5 15 18 48 25 65 5 11 21 49 36 85 14 36 31 76 37 90 6 14 11
27 12 30 6 23 22 64 43 110 14 30 25 61 25 68 0 6 4 12 9 12 4 0 8 10 8 23 0
13 4 27 10 33 5 5 20 38 34 74 13 36 30 79 37 95 7 17 13 32 14 35 1 3 6 16
12 30 6 14 25 61 42 105 17 44 36 89 41 100 5 11 41 101 80 200 39 99 78 195
87 214 8 18 16 40 17 47 1 8 8 20 14 26 7 7 12 22 12 35 0 13 4 23 8 23 5 0 9
6 9 13 0 6 11 37 25 67 21 46 37 87 43 110 1 3 6 16 12 30 26 59 36 86 38 96
2 6 11 29 21 50 11 22 19 41 20 44 0 3 4 14 9 25 4 11 19 47 32 80 27 67 35
87 53 130 8 17 14 35 16 40 7 29 368 912 376 923 6 7 8 15 5 19 -4 3 0 18 8
32 17 32 36 75 71 166 14 39 32 84 40 100 7 17 20 47 28 68 l15 37 -983 0
-984 0 -13 -32 c-7 -18 -25 -61 -41 -96 -15 -34 -28 -65 -28 -67 0 -2 -12 -30
-27 -62 -15 -32 -28 -63 -29 -68 -1 -6 -11 -31 -22 -56 -11 -25 -41 -94 -67
-154 -25 -61 -52 -123 -60 -140 -7 -16 -25 -59 -40 -95 -15 -36 -36 -85 -47
-110 -10 -25 -23 -54 -28 -65 -25 -60 -53 -124 -65 -150 -47 -106 -95 -224
-95 -234 0 -6 -4 -11 -10 -11 -5 0 -9 -3 -8 -7 2 -5 -7 -30 -19 -58 -12 -27
-22 -53 -22 -58 0 -4 -7 -20 -15 -35 -8 -15 -32 -70 -55 -122 -22 -52 -48
-113 -57 -135 -10 -22 -18 -42 -19 -45 -3 -8 -23 -58 -44 -103 -10 -23 -37
-87 -60 -142 -42 -99 -48 -114 -90 -207 -12 -26 -21 -49 -21 -52 0 -3 -11 -29
-24 -58 -25 -56 -67 -153 -87 -203 -7 -16 -12 -33 -11 -37 1 -5 -3 -8 -8 -8
-6 0 -10 -9 -10 -20 0 -11 -5 -20 -12 -20 -6 0 -9 -3 -6 -6 6 -6 -5 -37 -47
-129 -12 -27 -59 -138 -105 -245 -45 -107 -92 -215 -103 -240 -12 -25 -23 -54
-24 -65 -2 -10 -7 -22 -11 -25 -4 -3 -19 -34 -34 -70 -15 -36 -47 -112 -71
-170 -24 -58 -63 -149 -86 -204 -23 -54 -51 -117 -61 -140 -34 -76 -110 -255
-110 -260 0 -2 -13 -34 -30 -69 -16 -36 -30 -68 -30 -70 0 -3 -16 -41 -36 -84
-20 -43 -37 -82 -39 -88 -3 -13 -18 -49 -43 -105 -12 -25 -28 -63 -36 -84 -16
-39 -28 -42 -31 -8 -1 9 -5 24 -8 32 -7 15 -87 276 -91 295 -2 6 -11 37 -21
70 -11 33 -20 62 -20 65 -1 3 -7 23 -13 45 -6 22 -10 43 -9 46 1 3 -4 13 -12
22 -7 10 -10 17 -6 17 4 0 2 7 -5 15 -7 8 -10 15 -7 15 3 0 -3 26 -14 58 -11
31 -19 57 -19 57 1 0 -1 7 -4 15 -9 26 -59 194 -63 210 -4 17 -7 28 -15 50 -5
14 -36 116 -61 200 -5 19 -13 46 -18 60 -27 83 -81 264 -83 274 -1 6 -5 17 -9
24 -5 6 -6 12 -2 12 3 0 1 9 -5 21 -7 11 -14 30 -16 42 -2 12 -29 103 -59 202
-31 99 -58 188 -60 198 -2 9 -7 22 -10 27 -3 5 -8 20 -10 31 -3 12 -9 36 -14
53 -67 215 -82 266 -85 282 -3 11 -10 33 -16 49 -6 17 -14 39 -16 50 -3 11 -6
25 -8 30 -3 11 -42 141 -88 289 -16 54 -31 104 -32 110 -1 6 -5 17 -9 24 -5 7
-11 25 -13 40 -3 15 -32 117 -66 227 -65 215 -67 221 -69 233 0 4 -4 12 -9 17
-4 6 -11 28 -16 50 -4 22 -11 51 -17 65 -5 14 -12 34 -14 45 -2 11 -6 27 -10
35 -3 8 -8 21 -10 28 -1 6 -5 18 -6 25 -2 6 -7 19 -10 27 -6 14 -37 121 -43
145 -1 6 -14 48 -29 95 -15 47 -40 128 -55 180 -16 52 -57 188 -91 303 l-63
207 -757 0 -757 0 -7 -27z"/>
<path d="M16731 13377 c-12 -27 -21 -51 -21 -53 0 -3 -7 -21 -16 -42 -10 -20
-18 -41 -19 -47 -3 -11 -119 -304 -139 -350 -16 -37 -60 -148 -62 -155 0 -3
-4 -14 -9 -25 -43 -106 -136 -347 -137 -355 0 -3 -9 -22 -19 -42 -11 -21 -17
-38 -13 -38 4 0 2 -6 -4 -12 -6 -7 -22 -44 -36 -83 -15 -38 -30 -79 -36 -90
-11 -24 -84 -207 -115 -290 -20 -53 -52 -133 -76 -190 -14 -35 -154 -390 -155
-395 0 -3 -5 -16 -11 -30 -64 -148 -82 -215 -65 -236 5 -5 18 -40 31 -79 13
-38 29 -84 37 -102 8 -17 14 -37 14 -45 0 -8 3 -18 8 -22 4 -4 7 -11 8 -14 0
-4 3 -14 7 -22 3 -8 13 -35 21 -60 8 -25 29 -83 46 -130 17 -47 43 -121 58
-165 15 -44 31 -83 35 -86 5 -3 8 -9 8 -13 -2 -9 11 -59 18 -71 3 -5 6 -12 6
-15 0 -4 33 -98 53 -150 3 -8 6 -17 7 -20 3 -8 15 -41 30 -80 7 -19 21 -60 31
-90 10 -30 22 -59 26 -65 4 -5 8 -17 8 -27 0 -10 4 -26 10 -36 5 -9 37 -96 71
-192 33 -96 65 -184 69 -195 5 -11 19 -49 30 -85 12 -36 26 -74 30 -85 18 -44
43 -112 57 -155 8 -25 16 -51 18 -58 3 -7 5 -16 6 -20 0 -4 5 -13 11 -19 6 -7
9 -14 7 -15 -2 -1 -368 -2 -812 -3 -473 -1 -811 -5 -816 -11 -5 -5 -26 -52
-46 -104 -20 -52 -84 -214 -142 -360 -213 -537 -253 -639 -253 -644 0 -3 -11
-30 -25 -60 -14 -30 -25 -60 -25 -65 0 -6 -4 -19 -10 -29 -18 -32 -60 -144
-56 -151 2 -3 596 -6 1319 -6 l1315 1 13 -41 c7 -22 13 -42 14 -45 1 -3 5 -12
8 -20 4 -8 25 -67 48 -130 22 -63 54 -151 71 -195 16 -44 31 -87 33 -95 2 -8
11 -32 19 -52 9 -21 14 -38 11 -38 -3 0 2 -11 11 -24 8 -14 15 -29 15 -33 -2
-8 31 -105 49 -148 5 -11 41 -110 80 -220 39 -110 77 -216 85 -235 l13 -35
1020 -3 1021 -2 -14 42 c-9 24 -19 52 -24 63 -6 11 -42 108 -81 215 -40 107
-76 205 -81 218 -5 12 -13 32 -18 45 -5 12 -19 49 -31 82 -12 33 -26 69 -31
80 -4 11 -36 94 -70 185 -33 91 -76 203 -94 250 -65 170 -89 235 -90 240 0 3
-14 39 -30 80 -16 41 -30 77 -31 80 0 3 -4 14 -8 25 -41 104 -89 232 -91 240
-1 5 -7 24 -14 40 -6 17 -23 62 -38 100 -14 39 -30 74 -34 80 -5 5 -9 17 -9
27 0 10 -4 26 -9 36 -8 14 -37 88 -91 237 -6 17 -11 31 -11 33 1 1 -6 16 -14
32 -9 17 -13 30 -9 30 4 0 2 6 -3 13 -5 6 -20 41 -33 77 -13 36 -29 79 -36 95
-7 17 -29 75 -49 130 -20 55 -47 127 -60 160 -26 66 -37 95 -41 110 -5 17 -85
229 -95 250 -5 11 -22 58 -39 105 -17 47 -34 94 -39 105 -5 11 -19 47 -31 80
-12 33 -33 87 -46 120 -13 33 -24 65 -24 70 -1 6 -9 28 -20 50 -11 22 -19 43
-20 47 0 4 -5 19 -12 35 -6 15 -13 37 -15 47 -2 11 -7 24 -12 30 -4 6 -11 20
-14 31 -3 11 -15 45 -27 75 -35 92 -81 214 -84 225 -2 6 -7 21 -13 35 -6 14
-24 61 -41 105 -16 44 -47 123 -67 175 -20 52 -39 102 -40 110 -3 13 -44 120
-154 410 -16 41 -44 116 -62 165 -18 50 -36 95 -39 100 -4 6 -13 28 -19 50 -7
22 -16 49 -21 60 -6 11 -29 74 -54 140 -47 129 -213 570 -223 595 -3 8 -7 17
-8 20 -1 3 -5 12 -8 20 -4 8 -54 143 -112 300 -58 157 -110 294 -115 305 -13
28 -130 337 -134 355 -3 8 -11 31 -19 50 l-15 35 -21 -48z"/>
</g>
</svg>
